<svg width="25" height="25" viewBox="0 0 25 25" fill="none" xmlns="http://www.w3.org/2000/svg">
<path fill-rule="evenodd" clip-rule="evenodd" d="M7.50006 3.75C7.91427 3.75 8.25006 4.08579 8.25006 4.5V6.16763C11.0778 5.9158 13.9223 5.9158 16.7501 6.16763V4.5C16.7501 4.08579 17.0858 3.75 17.5001 3.75C17.9143 3.75 18.2501 4.08579 18.2501 4.5V6.31644C19.7431 6.52754 20.9226 7.70847 21.1223 9.21484L21.2089 9.86779C21.5729 12.6141 21.5414 15.3984 21.1155 18.1359C20.9045 19.4919 19.8028 20.5335 18.4371 20.6681L17.2441 20.7858C14.089 21.0969 10.911 21.0969 7.75599 20.7858L6.56298 20.6681C5.19724 20.5335 4.09558 19.4919 3.88457 18.1359C3.45861 15.3984 3.42717 12.6141 3.79121 9.86779L3.87776 9.21484C4.07744 7.70845 5.25699 6.52751 6.75006 6.31643V4.5C6.75006 4.08579 7.08585 3.75 7.50006 3.75ZM7.94523 7.7028C10.9744 7.40408 14.0256 7.40408 17.0548 7.7028L17.9603 7.7921C18.827 7.87757 19.5209 8.54854 19.6353 9.41194L19.7219 10.0649C19.7521 10.293 19.7795 10.5214 19.8039 10.75H5.19612C5.22061 10.5214 5.24797 10.293 5.2782 10.0649L5.36475 9.41194C5.4792 8.54854 6.17303 7.87757 7.03977 7.7921L7.94523 7.7028ZM5.07689 12.25C4.97871 14.1381 5.07544 16.0332 5.36674 17.9052C5.47258 18.5854 6.02515 19.1078 6.71019 19.1754L7.9032 19.293C10.9603 19.5945 14.0397 19.5945 17.0969 19.293L18.2899 19.1754C18.9749 19.1078 19.5275 18.5854 19.6333 17.9052C19.9246 16.0332 20.0214 14.1381 19.9232 12.25H5.07689Z" fill="#FF5353"/>
</svg>
