<svg width="540" height="540" viewBox="0 0 540 540" fill="none" xmlns="http://www.w3.org/2000/svg">
<circle cx="270.415" cy="266.415" r="249.316" stroke="#252629"/>
<g filter="url(#filter0_d_257_6392)">
<circle cx="270" cy="266" r="264" stroke="#252629" stroke-width="4" shape-rendering="crispEdges"/>
</g>
<line x1="290.694" y1="195.762" x2="332.994" y2="78.6757" stroke="#252629"/>
<line x1="325.721" y1="224.818" x2="425.09" y2="149.822" stroke="#252629"/>
<line x1="326.34" y1="307.527" x2="422.342" y2="386.788" stroke="#252629"/>
<line x1="291.644" y1="329.351" x2="326.538" y2="448.854" stroke="#252629"/>
<line x1="326.022" y1="265.915" x2="450.515" y2="265.915" stroke="#252629"/>
<line y1="-0.5" x2="125.141" y2="-0.5" transform="matrix(-0.339782 -0.940504 -0.940504 0.339782 238.047 196.542)" stroke="#252629"/>
<line y1="-0.5" x2="125.141" y2="-0.5" transform="matrix(-0.798191 -0.602405 -0.602405 0.798191 203.007 225.979)" stroke="#252629"/>
<line y1="-0.5" x2="125.141" y2="-0.5" transform="matrix(-0.771138 0.636668 0.636668 0.771138 203.007 309.106)" stroke="#252629"/>
<line y1="-0.5" x2="125.141" y2="-0.5" transform="matrix(-0.28029 0.959915 0.959915 0.28029 238.047 330.797)" stroke="#252629"/>
<line y1="-0.5" x2="125.323" y2="-0.5" transform="matrix(-1 0 0 1 203.189 267.379)" stroke="#252629"/>
<circle cx="270" cy="266" r="10.3744" fill="#252629"/>
<path d="M20.4999 330.5C20.4999 330.5 -9.99993 227.5 52.4999 129C91.884 66.9304 167.5 10.9998 265 10.9998C394.664 10.9998 474.486 92.2717 505.5 165C543.851 254.932 516 340 516 340" stroke="url(#paint0_linear_257_6392)" stroke-width="11"/>
<defs>
<filter id="filter0_d_257_6392" x="0" y="0" width="540" height="540" filterUnits="userSpaceOnUse" color-interpolation-filters="sRGB">
<feFlood flood-opacity="0" result="BackgroundImageFix"/>
<feColorMatrix in="SourceAlpha" type="matrix" values="0 0 0 0 0 0 0 0 0 0 0 0 0 0 0 0 0 0 127 0" result="hardAlpha"/>
<feOffset dy="4"/>
<feGaussianBlur stdDeviation="2"/>
<feComposite in2="hardAlpha" operator="out"/>
<feColorMatrix type="matrix" values="0 0 0 0 0 0 0 0 0 0 0 0 0 0 0 0 0 0 0.25 0"/>
<feBlend mode="normal" in2="BackgroundImageFix" result="effect1_dropShadow_257_6392"/>
<feBlend mode="normal" in="SourceGraphic" in2="effect1_dropShadow_257_6392" result="shape"/>
</filter>
<linearGradient id="paint0_linear_257_6392" x1="14" y1="172.5" x2="527" y2="172.5" gradientUnits="userSpaceOnUse">
<stop stop-color="#82FD6E"/>
<stop offset="0.333333" stop-color="#F7FF79"/>
<stop offset="0.666667" stop-color="#E98A55"/>
<stop offset="1" stop-color="#FF2B2B"/>
</linearGradient>
</defs>
</svg>
