<svg width="41" height="30" viewBox="0 0 41 30" fill="none" xmlns="http://www.w3.org/2000/svg">
<path d="M40.64 0.319994C39.92 3.35999 39.16 6.63999 38.36 10.16C37.56 13.68 36.84 17.12 36.2 20.48C35.56 23.84 35.04 26.92 34.64 29.72H23.24L22.4 28.4C23.12 25.6 24.04 22.6 25.16 19.4C26.28 16.12 27.52 12.84 28.88 9.56C30.24 6.28 31.56 3.2 32.84 0.319994H40.64ZM18.44 0.319994C17.72 3.35999 16.96 6.63999 16.16 10.16C15.36 13.68 14.64 17.12 14 20.48C13.36 23.84 12.84 26.92 12.44 29.72H1.16L0.44 28.4C1.16 25.6 2.08 22.6 3.2 19.4C4.32 16.12 5.52 12.84 6.8 9.56C8.16 6.28 9.48 3.2 10.76 0.319994H18.44Z" fill="#000"/>
</svg>
