<svg width="252" height="254" viewBox="0 0 252 254" fill="none" xmlns="http://www.w3.org/2000/svg">
<path d="M10.1806 146.623L9.5682 143.973C9.50696 143.708 9.64963 143.571 9.9198 143.683L20.4133 149.528L30.3669 138.993C30.5019 138.822 30.7567 138.868 30.818 139.133L31.438 141.816C31.4763 141.982 31.4406 142.129 31.3311 142.259L23.1329 151.028L28.906 154.266L33.7094 153.156C33.9413 153.102 34.0636 153.179 34.1172 153.41L34.6071 155.531C34.6607 155.762 34.5843 155.885 34.3524 155.938L13.7805 160.692C13.5486 160.746 13.4262 160.669 13.3726 160.437L12.8827 158.317C12.8292 158.085 12.9056 157.963 13.1375 157.909L25.0632 155.154L10.4381 146.983C10.3157 146.906 10.2189 146.789 10.1806 146.623Z" fill="white"/>
<path d="M31.1305 174.631L31.3859 175.111L37.0129 164.186C37.0991 163.986 37.3572 163.965 37.4849 164.205L38.7301 166.546C38.8099 166.696 38.8137 166.848 38.7416 167.002L32.9025 177.963L34.0998 180.215L43.0755 175.441C43.2856 175.33 43.4236 175.372 43.5353 175.582L44.5571 177.503C44.6688 177.713 44.6266 177.851 44.4165 177.963L25.7747 187.877C25.5646 187.989 25.4266 187.946 25.3149 187.736L21.1961 179.991C19.3442 176.509 20.1639 173.416 23.1658 171.82C26.2878 170.159 29.3584 171.299 31.1305 174.631ZM26.3249 184.349L32.1486 181.252L29.3708 176.029C28.2852 173.988 26.5519 173.408 24.7208 174.382C22.9196 175.339 22.4775 177.115 23.5631 179.156L26.3249 184.349Z" fill="white"/>
<path d="M54.4015 189.984C56.6043 192.347 57.6652 195.03 57.5842 198.034C57.5032 201.038 56.2326 203.664 53.8205 205.913C51.4084 208.162 48.7251 209.223 45.6977 209.118C42.6703 209.012 40.0428 207.789 37.8401 205.427C35.6837 203.114 34.6477 200.408 34.7535 197.38C34.8594 194.353 36.0819 191.725 38.494 189.476C40.9061 187.227 43.6126 186.191 46.64 186.297C49.6425 186.426 52.2452 187.672 54.4015 189.984ZM40.5576 191.689C38.6926 193.428 37.709 195.415 37.6069 197.648C37.5047 199.882 38.2295 201.856 39.8294 203.572C41.4293 205.288 43.371 206.173 45.6295 206.252C47.8648 206.307 49.915 205.464 51.7801 203.725C53.6202 202.009 54.6038 200.023 54.7308 197.766C54.8098 195.508 54.0618 193.509 52.4619 191.793C50.862 190.077 48.9436 189.216 46.7082 189.162C44.448 189.131 42.3978 189.974 40.5576 191.689Z" fill="white"/>
<path d="M64.2757 206.831L49.9765 218.614C49.8328 218.727 49.6641 218.748 49.5167 218.663L47.2762 217.376C47.0109 217.223 47.0197 217.071 47.2437 216.886L64.8971 202.679C65.0408 202.565 65.2095 202.545 65.3569 202.629L67.2731 203.73C67.4205 203.815 67.4876 203.971 67.4619 204.152L64.6987 222.132L78.7821 210.657C78.9258 210.544 79.0945 210.523 79.2419 210.608L81.1876 211.726C81.335 211.81 81.4021 211.967 81.3763 212.148L77.9616 234.537C77.9145 234.824 77.7878 234.908 77.5225 234.755L75.2526 233.451C75.1052 233.366 75.0381 233.21 75.0638 233.029L78.0892 214.729L64.12 226.074C63.9763 226.187 63.8076 226.208 63.6602 226.123L61.685 224.988C61.5376 224.904 61.4705 224.748 61.4963 224.566L64.2757 206.831Z" fill="white"/>
<path d="M108.782 243.539L106.071 243.322C105.799 243.3 105.711 243.123 105.9 242.899L114.643 234.662L107.607 221.99C107.485 221.81 107.606 221.581 107.877 221.603L110.622 221.822C110.792 221.836 110.922 221.915 111.013 222.058L116.895 232.523L121.725 227.998L122.118 223.084C122.137 222.846 122.247 222.753 122.484 222.772L124.653 222.945C124.891 222.964 124.984 223.074 124.965 223.311L123.281 244.358C123.262 244.595 123.152 244.689 122.915 244.67L120.746 244.496C120.508 244.477 120.415 244.368 120.434 244.13L121.41 231.929L109.202 243.402C109.092 243.495 108.951 243.552 108.782 243.539Z" fill="white"/>
<path d="M141.81 232.031L142.345 231.933L133.631 223.268C133.466 223.125 133.524 222.873 133.791 222.823L136.399 222.344C136.567 222.313 136.713 222.355 136.838 222.471L145.522 231.349L148.03 230.888L146.192 220.889C146.149 220.655 146.231 220.536 146.465 220.493L148.605 220.1C148.839 220.057 148.958 220.139 149.001 220.373L152.819 241.139C152.862 241.373 152.78 241.492 152.546 241.535L143.918 243.121C140.039 243.834 137.338 242.118 136.724 238.774C136.084 235.296 138.099 232.714 141.81 232.031ZM149.622 239.548L148.43 233.061L142.611 234.131C140.337 234.549 139.261 236.026 139.636 238.066C140.005 240.072 141.563 241.03 143.837 240.612L149.622 239.548Z" fill="white"/>
<path d="M163.478 214.487C166.395 213.101 169.274 212.9 172.113 213.885C174.952 214.87 177.071 216.874 178.487 219.853C179.902 222.832 180.102 225.711 179.087 228.565C178.071 231.419 176.112 233.554 173.194 234.94C170.338 236.297 167.445 236.467 164.591 235.451C161.737 234.435 159.602 232.476 158.187 229.497C156.772 226.518 156.602 223.625 157.617 220.771C158.648 217.948 160.622 215.843 163.478 214.487ZM160.92 228.199C162.014 230.502 163.611 232.04 165.709 232.812C167.807 233.584 169.908 233.49 172.027 232.483C174.146 231.476 175.577 229.893 176.335 227.764C177.062 225.649 176.878 223.441 175.784 221.137C174.704 218.865 173.108 217.327 170.995 216.524C168.866 215.766 166.735 215.875 164.616 216.882C162.497 217.889 161.096 219.457 160.369 221.572C159.657 223.717 159.84 225.926 160.92 228.199Z" fill="white"/>
<path d="M182.52 210.165L189.431 227.355C189.496 227.527 189.465 227.694 189.34 227.809L187.435 229.556C187.21 229.762 187.068 229.708 186.959 229.439L178.75 208.318C178.685 208.146 178.716 207.979 178.841 207.864L180.47 206.37C180.595 206.255 180.764 206.239 180.929 206.318L197.234 214.385L190.551 197.492C190.486 197.321 190.517 197.154 190.642 197.039L192.296 195.522C192.421 195.407 192.59 195.39 192.755 195.47L213.067 205.49C213.326 205.621 213.367 205.767 213.142 205.974L211.213 207.744C211.087 207.859 210.918 207.876 210.753 207.796L194.223 199.383L200.817 216.127C200.881 216.298 200.85 216.466 200.725 216.58L199.046 218.12C198.921 218.235 198.752 218.252 198.587 218.173L182.52 210.165Z" fill="white"/>
<path d="M230.961 178.83L229.934 181.349C229.832 181.601 229.636 181.631 229.48 181.384L224.27 170.561L210.064 173.439C209.856 173.501 209.674 173.316 209.776 173.064L210.815 170.514C210.879 170.356 210.994 170.256 211.158 170.213L222.911 167.768L220.057 161.796L215.491 159.936C215.271 159.846 215.215 159.713 215.304 159.493L216.125 157.478C216.215 157.257 216.348 157.201 216.568 157.291L236.122 165.256C236.343 165.346 236.399 165.479 236.309 165.699L235.488 167.715C235.398 167.935 235.265 167.991 235.045 167.901L223.709 163.284L230.957 178.388C231.013 178.521 231.025 178.672 230.961 178.83Z" fill="white"/>
<path d="M229.97 143.868L230.038 143.328L219.144 149.017C218.959 149.131 218.735 149 218.769 148.73L219.1 146.099C219.122 145.93 219.206 145.804 219.354 145.72L230.441 140.123L230.759 137.593L220.673 136.325C220.436 136.295 220.348 136.181 220.378 135.945L220.649 133.786C220.679 133.55 220.793 133.461 221.029 133.491L241.978 136.126C242.214 136.156 242.302 136.27 242.273 136.506L241.178 145.209C240.686 149.122 238.234 151.179 234.861 150.754C231.352 150.313 229.499 147.612 229.97 143.868ZM239.496 138.692L232.952 137.869L232.213 143.739C231.925 146.033 233.008 147.506 235.065 147.764C237.089 148.019 238.474 146.822 238.762 144.528L239.496 138.692Z" fill="white"/>
<path d="M219.792 117.912C219.353 114.712 220.031 111.908 221.828 109.499C223.625 107.09 226.176 105.675 229.443 105.226C232.711 104.777 235.515 105.456 237.929 107.287C240.342 109.117 241.786 111.63 242.226 114.83C242.656 117.962 241.944 120.771 240.113 123.185C238.283 125.599 235.77 127.042 232.503 127.491C229.235 127.94 226.426 127.228 224.013 125.397C221.633 123.562 220.223 121.045 219.792 117.912ZM232.091 124.493C234.617 124.146 236.565 123.089 237.935 121.322C239.306 119.555 239.85 117.524 239.531 115.2C239.212 112.876 238.135 111.033 236.334 109.668C234.538 108.336 232.377 107.843 229.851 108.191C227.358 108.533 225.41 109.59 224.006 111.362C222.64 113.162 222.1 115.227 222.42 117.551C222.739 119.875 223.811 121.684 225.607 123.016C227.437 124.343 229.598 124.836 232.091 124.493Z" fill="white"/>
<path d="M221.426 98.454L239.901 97.0602C240.084 97.0502 240.234 97.1305 240.306 97.2846L241.396 99.6276C241.525 99.905 241.43 100.024 241.14 100.046L218.526 101.49C218.343 101.5 218.193 101.42 218.122 101.266L217.189 99.262C217.118 99.1079 217.153 98.9416 217.278 98.8082L229.894 85.7032L211.772 86.9701C211.589 86.9801 211.44 86.8998 211.368 86.7457L210.421 84.711C210.35 84.5569 210.385 84.3905 210.51 84.2572L226.199 67.923C226.403 67.7158 226.555 67.7201 226.684 67.9976L227.788 70.3714C227.86 70.5255 227.824 70.6918 227.699 70.8252L214.684 84.0407L232.638 82.8146C232.821 82.8046 232.971 82.8849 233.042 83.039L234.003 85.1045C234.075 85.2587 234.04 85.425 233.914 85.5583L221.426 98.454Z" fill="white"/>
<path d="M206.192 42.8102L208.283 44.5494C208.493 44.7233 208.462 44.9193 208.179 44.9935L196.288 46.6899L194.739 61.1007C194.735 61.3184 194.505 61.4361 194.295 61.2622L192.178 59.5012C192.047 59.3925 191.986 59.2533 191.995 59.0835L193.215 47.1413L186.66 48.0575L183.508 51.848C183.355 52.031 183.212 52.0442 183.029 51.892L181.356 50.5006C181.173 50.3484 181.159 50.2047 181.312 50.0217L194.813 33.7883C194.965 33.6053 195.108 33.5921 195.291 33.7443L196.964 35.1357C197.147 35.2879 197.161 35.4315 197.008 35.6145L189.182 45.0252L205.77 42.68C205.913 42.6668 206.061 42.7015 206.192 42.8102Z" fill="white"/>
<path d="M172.565 33.1903L172.071 32.9625L174.203 45.0654C174.255 45.2767 174.063 45.4502 173.816 45.3363L171.408 44.2257C171.253 44.1545 171.158 44.0358 171.123 43.8696L169.138 31.6099L166.822 30.542L162.565 39.7737C162.466 39.9899 162.33 40.0398 162.114 39.9401L160.138 39.0289C159.922 38.9292 159.872 38.7939 159.972 38.5777L168.813 19.4042C168.913 19.1881 169.048 19.1382 169.265 19.2378L177.23 22.9112C180.812 24.5628 182.031 27.5212 180.607 30.6087C179.127 33.8198 175.992 34.7707 172.565 33.1903ZM170.51 22.5453L167.748 28.5351L173.12 31.0125C175.22 31.9807 176.951 31.3936 177.819 29.5102C178.673 27.6577 177.951 25.9766 175.851 25.0085L170.51 22.5453Z" fill="white"/>
<path d="M144.747 35.0496C141.564 34.5019 139.096 33.0077 137.342 30.567C135.589 28.1262 135.011 25.2669 135.571 22.0167C136.13 18.7664 137.624 16.2981 140.098 14.5503C142.572 12.8026 145.404 12.1858 148.587 12.7336C151.704 13.2698 154.166 14.7975 155.914 17.2717C157.662 19.7459 158.278 22.5775 157.719 25.8278C157.16 29.078 155.632 31.5406 153.158 33.2883C150.689 35.0026 147.864 35.5858 144.747 35.0496ZM154.737 25.3146C155.169 22.8016 154.75 20.625 153.48 18.7849C152.21 16.9448 150.438 15.812 148.126 15.4142C145.814 15.0163 143.732 15.4861 141.886 16.79C140.074 18.0996 138.952 20.011 138.519 22.524C138.093 25.0036 138.512 27.1802 139.776 29.0538C141.08 30.8996 142.885 32.0382 145.197 32.436C147.509 32.8339 149.557 32.3583 151.37 31.0487C153.188 29.7055 154.31 27.7942 154.737 25.3146Z" fill="white"/>
<path d="M126.692 27.6134L130.946 9.58018C130.991 9.40287 131.113 9.2843 131.282 9.26253L133.844 8.93163C134.148 8.89244 134.233 9.01862 134.166 9.30144L128.71 31.2953C128.664 31.4726 128.542 31.5911 128.374 31.6129L126.182 31.8959C126.013 31.9177 125.865 31.8339 125.776 31.674L117.096 15.688L112.828 33.3459C112.782 33.5232 112.66 33.6418 112.492 33.6636L110.266 33.951C110.098 33.9727 109.95 33.889 109.86 33.7291L99.0301 13.8382C98.8941 13.5815 98.9441 13.4379 99.2476 13.3987L101.844 13.0635C102.013 13.0417 102.161 13.1255 102.25 13.2853L110.915 29.6847L115.171 12.1998C115.217 12.0224 115.339 11.9039 115.507 11.8821L117.766 11.5904C117.935 11.5686 118.083 11.6524 118.172 11.8123L126.692 27.6134Z" fill="white"/>
<path d="M69.0462 25.3218L71.336 23.8538C71.565 23.707 71.7426 23.795 71.728 24.0871L69.752 35.9353L83.0213 41.7659C83.2275 41.8356 83.2701 42.091 83.0411 42.2378L80.7227 43.7242C80.5795 43.8159 80.4284 43.8321 80.2691 43.7726L69.2538 39.001L68.1466 45.5266L70.8073 49.6769C70.9358 49.8773 70.905 50.0182 70.7046 50.1467L68.8727 51.3211C68.6724 51.4495 68.5315 51.4187 68.403 51.2183L57.0076 33.4434C56.8792 33.2431 56.91 33.1022 57.1104 32.9737L58.9423 31.7993C59.1426 31.6709 59.2835 31.7017 59.412 31.902L66.018 42.2063L68.7945 25.6851C68.8253 25.5441 68.9031 25.4135 69.0462 25.3218Z" fill="white"/>
<path d="M49.7154 54.4707L49.349 54.8728L61.5303 56.4977C61.7476 56.5117 61.8548 56.7474 61.6716 56.9484L59.8853 58.9086C59.7708 59.0342 59.6289 59.0889 59.4597 59.0727L47.1733 57.2602L45.4557 59.1449L52.9697 65.9924C53.1456 66.1528 53.1523 66.2968 52.9919 66.4728L51.5263 68.0811C51.3659 68.257 51.2219 68.2637 51.0459 68.1034L35.4401 53.8816C35.2642 53.7213 35.2575 53.5772 35.4178 53.4013L41.3264 46.9177C43.9829 44.0026 47.1715 43.7343 49.6845 46.0245C52.298 48.4062 52.2575 51.6813 49.7154 54.4707ZM38.947 53.2135L43.8223 57.6563L47.8071 53.2837C49.3644 51.5748 49.3278 49.7474 47.7948 48.3504C46.287 46.9763 44.4663 47.1571 42.909 48.8659L38.947 53.2135Z" fill="white"/>
<path d="M43.0826 81.5499C41.5987 84.4189 39.4285 86.3204 36.572 87.2545C33.7156 88.1886 30.8154 87.8751 27.8861 86.3599C24.9567 84.8447 23.0552 82.6745 22.1368 79.7879C21.2183 76.9012 21.4859 74.0156 22.9699 71.1467C24.4226 68.3381 26.623 66.4522 29.5097 65.5338C32.3963 64.6153 35.2819 64.883 38.2112 66.3982C41.1406 67.9133 43.0265 70.1137 43.9449 73.0004C44.8332 75.8714 44.5353 78.7414 43.0826 81.5499ZM36.821 69.0859C34.5561 67.9144 32.3546 67.6561 30.2167 68.3111C28.0788 68.9661 26.4637 70.3126 25.3858 72.3963C24.308 74.4801 24.1268 76.6065 24.812 78.76C25.5128 80.8834 26.9957 82.5308 29.2607 83.7024C31.4954 84.8583 33.6969 85.1165 35.865 84.4772C38.0185 83.792 39.6493 82.4153 40.7271 80.3315C41.8049 78.2478 41.9705 76.1515 41.2697 74.0282C40.5387 71.8892 39.0558 70.2418 36.821 69.0859Z" fill="white"/>
<path d="M30.5383 96.5146L14.6333 87.0109C14.4781 86.9138 14.4018 86.7618 14.432 86.5945L14.8909 84.0516C14.9453 83.7505 15.0912 83.7077 15.3408 83.8564L34.6579 95.7033C34.8131 95.8004 34.8893 95.9524 34.8591 96.1197L34.4667 98.2946C34.4365 98.4618 34.3119 98.5776 34.1326 98.6143L16.2709 102.059L31.8139 111.463C31.9691 111.56 32.0453 111.712 32.0151 111.879L31.6166 114.087C31.5864 114.255 31.4619 114.37 31.2825 114.407L9.04896 118.721C8.76317 118.773 8.6414 118.682 8.69575 118.381L9.16069 115.805C9.19088 115.637 9.31541 115.522 9.49479 115.485L27.7459 112.18L12.3641 102.84C12.2089 102.742 12.1327 102.59 12.1629 102.423L12.5675 100.181C12.5976 100.014 12.7222 99.8984 12.9015 99.8616L30.5383 96.5146Z" fill="white"/>
<circle cx="89.1978" cy="28.1082" r="4.10824" fill="white"/>
<circle cx="209.706" cy="61.8871" r="4.10824" fill="white"/>
<circle cx="215.184" cy="188.786" r="4.10824" fill="white"/>
<circle cx="96.5015" cy="231.695" r="4.10824" fill="white"/>
<circle cx="18.9015" cy="133.097" r="4.10824" fill="white"/>
</svg>
